<?xml version="1.0" standalone="no"?>
<!DOCTYPE svg PUBLIC "-//W3C//DTD SVG 20010904//EN"
 "http://www.w3.org/TR/2001/REC-SVG-20010904/DTD/svg10.dtd">
<svg version="1.0" xmlns="http://www.w3.org/2000/svg"
 width="235.000000pt" height="221.000000pt" viewBox="0 0 235.000000 221.000000"
 preserveAspectRatio="xMidYMid meet">

<g transform="translate(0.000000,221.000000) scale(0.100000,-0.100000)"
fill="#000000" stroke="none">
<path d="M0 1105 l0 -1105 1175 0 1175 0 0 1105 0 1105 -1175 0 -1175 0 0
-1105z m502 220 l3 -244 90 242 90 242 122 3 121 3 6 -38 c3 -21 22 -153 41
-293 19 -140 50 -370 70 -510 19 -140 35 -261 35 -268 0 -8 -20 -12 -64 -12
l-64 0 -11 83 c-64 466 -121 889 -121 897 0 6 -10 10 -22 10 -21 0 -33 -27
-122 -268 -55 -147 -113 -302 -129 -344 l-29 -78 -74 0 -74 0 0 410 0 410 65
0 65 0 2 -245z m946 178 l3 -63 -116 0 -117 0 7 -82 c4 -46 12 -133 19 -195
l11 -112 195 -212 195 -213 3 65 c2 35 1 160 -3 277 l-7 212 -94 0 -94 0 0 65
0 65 160 0 160 0 0 -122 c0 -68 3 -261 7 -430 l6 -308 -75 0 -75 0 -209 228
c-115 125 -228 247 -251 272 l-42 46 -25 255 c-14 141 -26 270 -26 287 l0 32
183 -2 182 -3 3 -62z m662 -973 l0 -80 -80 0 -80 0 0 80 0 80 80 0 80 0 0 -80z"/>
</g>
</svg>
