<?xml version="1.0" standalone="no"?>
<!DOCTYPE svg PUBLIC "-//W3C//DTD SVG 20010904//EN"
 "http://www.w3.org/TR/2001/REC-SVG-20010904/DTD/svg10.dtd">
<svg version="1.0" xmlns="http://www.w3.org/2000/svg"
 width="800.000000pt" height="850.000000pt" viewBox="0 0 800.000000 850.000000"
 preserveAspectRatio="xMidYMid meet">

<g transform="translate(0.000000,850.000000) scale(0.100000,-0.100000)"
fill="#000000" stroke="none">
<path d="M2219 8446 c-103 -27 -208 -119 -257 -224 l-27 -57 -3 -2222 -2
-2223 165 0 165 0 0 141 c0 162 13 200 80 238 37 21 45 21 645 21 436 0 612
-3 628 -11 12 -7 38 -26 58 -43 19 -17 47 -41 62 -53 35 -29 48 -85 48 -199
l0 -94 89 0 89 0 0 141 c1 163 11 196 72 235 l39 24 607 0 c678 0 623 6 718
-75 71 -61 86 -101 86 -226 l0 -99 164 0 165 0 -2 2223 -3 2222 -31 65 c-39
83 -106 150 -192 192 l-66 33 -259 3 c-298 4 -291 6 -300 -82 -9 -89 -54 -158
-132 -199 -37 -20 -57 -22 -262 -25 l-223 -3 0 -117 c0 -134 -13 -172 -69
-209 -34 -23 -36 -23 -398 -23 -401 0 -400 0 -445 62 -21 30 -23 46 -26 160
l-4 127 -221 3 c-207 3 -225 5 -264 25 -74 40 -133 138 -133 223 0 57 -13 60
-276 59 -156 0 -255 -5 -285 -13z m1661 -1178 c1 -41 38 -107 71 -127 18 -11
51 -23 73 -27 l41 -7 -47 -12 c-65 -16 -97 -40 -119 -88 -17 -39 -19 -73 -21
-432 -1 -269 -4 -354 -8 -275 -4 63 -8 241 -9 395 -1 245 -3 284 -19 315 -21
43 -73 78 -126 87 l-41 7 48 12 c85 22 124 61 134 134 6 42 23 56 23 18z
m-438 -644 c14 -15 48 -31 79 -39 38 -9 46 -13 26 -14 -40 -1 -99 -28 -119
-54 -10 -12 -18 -17 -18 -10 0 16 58 63 78 63 9 1 0 10 -21 21 -22 12 -44 34
-54 55 l-17 35 -18 -35 c-10 -20 -34 -44 -56 -55 -20 -11 -29 -20 -20 -21 20
0 78 -47 78 -63 0 -7 -8 -2 -18 10 -20 26 -79 53 -119 54 -19 1 -11 5 27 15
73 17 107 54 116 126 l7 53 12 -58 c8 -38 20 -67 37 -83z m-40 -143 c7 10 8 7
4 -11 -3 -14 -7 -108 -8 -210 -1 -102 -3 -167 -5 -145 -4 63 -8 376 -4 364 2
-8 7 -7 13 2z m935 -368 c-3 -10 -5 -2 -5 17 0 19 2 27 5 18 2 -10 2 -26 0
-35z m1092 -367 c15 -8 32 -26 39 -41 15 -33 16 -209 1 -238 -28 -55 -37 -57
-270 -57 l-217 0 -31 35 c-30 35 -31 38 -31 136 0 108 13 147 54 168 12 5 109
10 224 10 157 1 209 -2 231 -13z m-18 -530 c68 -47 69 -52 69 -450 0 -399 -1
-406 -66 -450 l-39 -26 -1504 0 -1504 0 -35 22 c-69 42 -72 59 -72 452 0 330
1 352 20 390 11 23 35 51 52 64 l33 22 1505 0 1505 0 36 -24z"/>
<path d="M5130 5664 c-44 -19 -80 -52 -80 -74 0 -37 89 -90 150 -90 61 0 150
53 150 90 0 38 -90 90 -152 90 -18 -1 -49 -8 -68 -16z m151 -27 c61 -33 61
-63 -1 -95 -54 -28 -122 -25 -176 8 -40 25 -42 39 -11 68 50 47 121 54 188 19z"/>
<path d="M5173 5635 c-44 -31 -23 -95 31 -95 44 0 67 25 40 45 -10 7 -19 24
-19 37 0 28 -23 34 -52 13z"/>
<path d="M3110 4951 c0 -12 -10 -21 -27 -26 -47 -11 -73 -43 -73 -90 0 -47 17
-68 68 -86 31 -11 32 -12 32 -75 0 -55 -3 -64 -18 -64 -10 0 -28 9 -41 21 -21
19 -51 20 -51 1 0 -15 44 -49 75 -59 20 -6 31 -17 33 -32 4 -27 26 -22 30 7 2
14 11 22 23 22 10 0 33 13 51 29 27 24 33 36 33 69 0 47 -22 76 -71 94 -33 12
-34 13 -34 70 0 64 10 72 52 39 15 -12 29 -16 38 -11 22 13 4 36 -44 56 -30
12 -46 25 -46 37 0 9 -7 17 -15 17 -8 0 -15 -9 -15 -19z m0 -116 c0 -59 -4
-63 -38 -39 -27 19 -30 68 -4 83 35 21 42 13 42 -44z m60 -115 c42 -23 45 -76
6 -102 -28 -19 -36 -7 -36 52 0 64 1 66 30 50z"/>
<path d="M4121 4927 c-46 -16 -69 -50 -82 -121 -24 -134 32 -246 124 -246 91
0 137 63 137 190 0 102 -23 151 -79 173 -48 20 -55 20 -100 4z m75 -55 c24
-15 34 -54 34 -124 0 -91 -14 -122 -57 -126 -48 -5 -63 25 -63 128 0 61 4 92
16 108 15 22 49 29 70 14z"/>
<path d="M4595 4933 c-67 -18 -95 -71 -95 -185 0 -95 17 -140 62 -168 39 -24
76 -25 124 -5 49 20 74 78 74 175 0 102 -23 151 -79 173 -42 17 -51 18 -86 10z
m61 -61 c24 -15 34 -54 34 -124 0 -91 -14 -122 -57 -126 -49 -5 -63 24 -63
130 0 75 3 91 20 108 21 21 47 25 66 12z"/>
<path d="M4891 4927 c-19 -7 -42 -23 -52 -37 -40 -54 -46 -196 -12 -263 17
-34 69 -67 106 -67 89 0 137 66 137 188 0 98 -26 154 -81 176 -46 19 -53 19
-98 3z m75 -55 c24 -15 34 -54 34 -124 0 -88 -15 -122 -54 -126 -52 -6 -66 19
-66 122 0 67 4 98 16 114 15 22 49 29 70 14z"/>
<path d="M2690 4750 c0 -173 1 -180 20 -180 18 0 20 7 20 75 l0 75 43 0 43 0
37 -75 c32 -64 41 -75 63 -75 l25 0 -40 77 c-35 67 -39 79 -25 86 39 22 54 47
54 93 0 37 -5 51 -29 75 -28 28 -33 29 -120 29 l-91 0 0 -180z m178 128 c7 -7
12 -31 12 -55 0 -52 -16 -63 -94 -63 l-56 0 0 65 0 65 63 0 c36 0 68 -5 75
-12z"/>
<path d="M3476 4896 c-14 -19 -33 -42 -42 -51 -16 -15 -16 -18 4 -37 l21 -21
28 33 c15 18 33 41 40 49 10 13 12 -10 13 -116 l0 -133 -50 0 c-47 0 -50 -2
-50 -25 l0 -25 125 0 125 0 0 25 c0 23 -4 25 -40 25 l-40 0 0 155 0 155 -54 0
c-49 0 -56 -3 -80 -34z"/>
<path d="M3756 4893 c-3 -21 -6 -68 -6 -105 0 -68 0 -68 28 -68 15 0 36 7 46
15 11 8 28 15 38 15 27 0 58 -36 58 -68 0 -58 -72 -83 -116 -41 -18 17 -26 19
-44 9 -46 -25 8 -80 87 -87 81 -8 143 48 143 131 0 55 -52 106 -108 106 -32 0
-44 -5 -61 -27 l-20 -28 -1 25 c0 14 3 42 6 63 l7 37 78 0 79 0 0 30 0 30
-104 0 -103 0 -7 -37z"/>
<path d="M4372 4638 c-17 -17 -15 -48 3 -68 14 -15 13 -20 -5 -43 -26 -32 -25
-39 2 -35 12 2 33 18 45 37 37 54 27 121 -17 121 -9 0 -21 -5 -28 -12z"/>
<path d="M3899 8056 c-2 -2 -3 -36 -1 -75 3 -53 7 -71 18 -71 10 0 14 12 14
40 0 29 4 40 15 40 11 0 15 -11 15 -40 0 -29 4 -40 15 -40 11 0 15 12 15 44 0
46 -19 72 -45 62 -11 -4 -15 1 -15 19 0 22 -18 34 -31 21z"/>
<path d="M3716 8032 c-3 -5 -19 -12 -35 -15 -28 -6 -30 -9 -29 -51 0 -24 -3
-49 -7 -55 -21 -34 59 -56 90 -25 20 20 15 36 -14 50 -17 9 -19 13 -8 17 16 6
29 67 17 80 -4 5 -10 4 -14 -1z m-16 -52 c0 -5 -4 -10 -10 -10 -5 0 -10 5 -10
10 0 6 5 10 10 10 6 0 10 -4 10 -10z m3 -77 c-7 -2 -19 -2 -25 0 -7 3 -2 5 12
5 14 0 19 -2 13 -5z"/>
<path d="M3545 8012 c-3 -3 -5 -27 -5 -54 0 -35 4 -48 14 -48 10 0 16 13 18
37 4 52 28 56 28 4 0 -30 4 -41 15 -41 19 0 21 83 3 98 -14 10 -63 13 -73 4z"/>
<path d="M3810 8005 c-11 -13 -11 -21 -3 -35 9 -13 9 -20 0 -29 -9 -9 -8 -14
3 -21 22 -14 47 -12 64 6 20 20 6 51 -26 57 -19 4 -18 5 5 6 18 0 27 6 25 14
-7 19 -53 20 -68 2z"/>
<path d="M4018 8009 c-21 -12 -24 -69 -6 -87 21 -21 56 -14 75 14 15 24 15 29
2 53 -16 28 -44 37 -71 20z m42 -44 c0 -16 -6 -25 -15 -25 -9 0 -15 9 -15 25
0 16 6 25 15 25 9 0 15 -9 15 -25z"/>
<path d="M4110 7943 c0 -55 3 -74 13 -71 6 3 13 14 15 25 2 15 9 19 22 16 12
-3 24 4 36 22 16 25 16 30 3 54 -12 20 -23 26 -52 27 l-37 1 0 -74z m60 22 c0
-16 -6 -25 -15 -25 -9 0 -15 9 -15 25 0 16 6 25 15 25 9 0 15 -9 15 -25z"/>
<path d="M3754 7939 c-10 -17 13 -36 27 -22 12 12 4 33 -11 33 -5 0 -12 -5
-16 -11z"/>
<path d="M6593 7614 c-8 -22 10 -49 32 -49 10 0 22 7 28 16 15 24 1 49 -28 49
-15 0 -28 -7 -32 -16z"/>
<path d="M6161 7364 c-27 -35 -26 -59 4 -89 45 -46 115 -20 117 43 2 69 -79
100 -121 46z"/>
<path d="M6685 6414 c-31 -58 -82 -86 -155 -86 l-61 0 44 -28 c59 -37 81 -84
75 -162 l-4 -60 17 34 c39 75 112 114 189 102 l35 -6 -30 20 c-72 45 -104 113
-91 187 4 19 5 35 4 35 -2 0 -12 -16 -23 -36z"/>
<path d="M6605 5723 c-117 -7 -352 -36 -520 -64 -200 -34 -255 -46 -255 -58 0
-4 55 2 122 15 336 65 567 88 853 88 263 0 372 -13 514 -60 359 -120 396 -397
103 -784 -44 -58 -93 -118 -110 -133 l-30 -29 -45 35 c-68 52 -129 72 -217 72
-130 0 -234 -65 -290 -179 -56 -112 -50 -222 15 -330 l33 -56 -126 -93 c-223
-164 -461 -321 -714 -472 -54 -31 -98 -61 -98 -66 0 -5 2 -9 4 -9 8 0 251 147
386 233 138 88 362 243 484 335 l79 59 54 -33 c107 -64 217 -69 329 -14 72 35
116 81 153 160 38 81 37 191 -3 277 l-28 61 67 79 c345 403 363 719 50 869
-175 84 -467 119 -810 97z"/>
<path d="M1245 5543 c-16 -87 -118 -223 -179 -239 -36 -9 -32 -24 7 -24 71 0
207 -93 246 -168 l18 -35 7 39 c12 62 65 151 119 200 27 24 44 44 38 44 -36 0
-161 -167 -161 -215 0 -24 -13 -18 -44 21 -33 42 -134 110 -177 119 l-31 7 56
55 c49 48 89 113 110 177 6 17 10 15 33 -18 51 -70 227 -166 256 -137 8 8 3
11 -18 11 -70 0 -198 83 -245 157 l-28 43 -7 -37z"/>
<path d="M5395 3860 l0 -169 -35 -36 c-19 -19 -50 -40 -70 -45 -48 -14 -1180
-13 -1215 0 -35 13 -30 -6 9 -34 27 -21 39 -21 644 -24 689 -3 661 -5 709 67
21 31 23 45 23 178 0 149 -6 178 -46 215 -18 16 -19 11 -19 -152z"/>
<path d="M3695 4009 c4 -6 7 -75 7 -155 -1 -169 -10 -195 -82 -231 l-44 -23
-587 0 c-358 0 -598 4 -613 10 -36 13 -33 -4 7 -32 l32 -23 610 -3 c336 -1
620 0 632 3 38 9 92 64 97 98 11 71 15 257 6 288 -10 33 -46 79 -62 79 -5 0
-6 -5 -3 -11z"/>
<path d="M1730 3879 c-715 -480 -1168 -944 -1246 -1275 -100 -428 406 -610
1344 -483 45 6 82 15 82 21 0 6 -15 7 -37 4 -121 -20 -322 -37 -483 -43 -558
-18 -877 113 -897 371 -27 329 454 861 1261 1396 139 92 174 120 149 120 -5 0
-82 -50 -173 -111z"/>
<path d="M3052 3918 c-21 -27 -19 -128 3 -128 10 0 15 10 15 34 0 19 5 38 10
41 8 5 7 12 -2 23 -10 12 -10 16 0 19 6 3 12 9 12 14 0 13 -26 11 -38 -3z"/>
<path d="M3277 3924 c-8 -8 1 -24 14 -24 5 0 9 7 9 15 0 15 -12 20 -23 9z"/>
<path d="M4552 3863 c3 -59 6 -68 23 -71 16 -3 18 -1 8 9 -8 7 -13 38 -13 71
0 34 -4 58 -10 58 -7 0 -10 -25 -8 -67z"/>
<path d="M4600 3916 c0 -9 7 -16 16 -16 9 0 14 5 12 12 -6 18 -28 21 -28 4z"/>
<path d="M4747 3924 c-8 -8 1 -24 14 -24 5 0 9 7 9 15 0 15 -12 20 -23 9z"/>
<path d="M2603 3890 c-8 -12 -9 -21 -3 -25 6 -3 10 -22 10 -41 0 -28 4 -34 22
-34 17 0 19 3 10 12 -14 14 -16 54 -2 63 9 6 -8 45 -20 45 -3 0 -11 -9 -17
-20z"/>
<path d="M4796 3893 c-9 -33 8 -98 27 -101 9 -2 17 1 17 7 0 6 -4 11 -10 11
-17 0 -11 50 6 57 15 5 15 7 0 15 -9 5 -14 13 -11 19 4 5 -1 9 -9 9 -8 0 -17
-8 -20 -17z"/>
<path d="M2670 3838 c0 -35 4 -48 13 -45 6 2 11 15 9 30 -2 18 3 29 18 37 25
14 20 22 -15 26 -24 2 -25 0 -25 -48z"/>
<path d="M2753 3883 c-7 -2 -13 -9 -13 -15 0 -6 7 -7 16 -4 31 12 36 -7 5 -20
-17 -7 -31 -20 -31 -28 0 -20 32 -37 50 -26 7 4 19 6 26 3 9 -3 11 6 7 39 -7
53 -23 66 -60 51z m35 -65 c-6 -18 -28 -21 -28 -4 0 9 7 16 16 16 9 0 14 -5
12 -12z"/>
<path d="M2844 3881 c-2 -2 -4 -24 -4 -48 0 -32 4 -43 16 -43 11 0 15 8 13 28
-4 31 8 55 22 47 5 -4 9 -22 9 -41 0 -42 22 -42 27 -1 6 42 -12 67 -48 64 -17
-1 -32 -4 -35 -6z"/>
<path d="M2951 3876 c-16 -19 -7 -34 26 -47 32 -12 20 -31 -15 -23 -26 5 -26
5 -8 -10 24 -19 27 -20 51 -2 22 16 14 46 -15 53 -11 3 -20 10 -20 15 0 6 9 8
21 5 13 -3 19 -1 16 6 -6 18 -42 20 -56 3z"/>
<path d="M3113 3878 c-40 -52 6 -120 54 -82 17 14 17 15 -2 13 -33 -2 -45 1
-45 11 0 6 14 10 30 10 22 0 30 5 30 18 0 36 -46 57 -67 30z m42 -18 c3 -5 -3
-10 -15 -10 -12 0 -18 5 -15 10 3 6 10 10 15 10 5 0 12 -4 15 -10z"/>
<path d="M3205 3882 c-3 -3 -5 -25 -5 -49 0 -32 4 -43 15 -43 10 0 15 11 15
35 0 24 5 35 15 35 8 0 15 4 15 9 0 10 -47 21 -55 13z"/>
<path d="M3327 3883 c-1 -1 -1 -22 1 -47 5 -54 22 -62 22 -11 0 24 5 35 15 35
8 0 15 6 15 13 0 9 -45 18 -53 10z"/>
<path d="M4362 3878 c-19 -19 -14 -38 13 -48 34 -13 32 -32 -2 -25 -26 6 -27
5 -10 -8 21 -18 53 -12 62 11 6 17 -18 42 -42 42 -7 0 -13 5 -13 11 0 7 10 9
25 5 27 -7 35 8 9 18 -22 8 -28 8 -42 -6z"/>
<path d="M4455 3874 c-21 -21 -16 -63 10 -80 45 -29 88 42 49 80 -20 20 -38
20 -59 0z m50 -24 c9 -28 -13 -54 -31 -39 -15 12 -19 41 -7 52 13 13 32 7 38
-13z"/>
<path d="M4662 3878 c-20 -20 -15 -76 8 -88 23 -12 65 4 54 21 -4 6 -11 6 -20
-2 -20 -16 -37 1 -32 32 2 20 8 23 32 21 26 -3 28 -1 17 12 -16 19 -42 21 -59
4z"/>
<path d="M4869 3874 c-11 -13 -9 -14 14 -9 16 4 27 3 27 -3 0 -5 -9 -12 -20
-15 -11 -3 -23 -12 -26 -21 -9 -23 14 -48 34 -37 8 5 23 6 33 4 16 -4 17 0 12
33 -8 57 -46 82 -74 48z m39 -55 c-2 -6 -8 -10 -13 -10 -5 0 -11 4 -13 10 -2
6 4 11 13 11 9 0 15 -5 13 -11z"/>
<path d="M4966 3880 c-2 -3 -1 -24 2 -47 5 -52 22 -57 22 -8 0 24 5 35 15 35
8 0 15 6 15 13 0 11 -49 18 -54 7z"/>
<path d="M3280 3835 c0 -25 5 -45 10 -45 6 0 10 20 10 45 0 25 -4 45 -10 45
-5 0 -10 -20 -10 -45z"/>
<path d="M4600 3835 c0 -33 4 -45 15 -45 11 0 15 12 15 45 0 33 -4 45 -15 45
-11 0 -15 -12 -15 -45z"/>
<path d="M4748 3835 c2 -25 8 -45 13 -45 5 0 9 20 9 45 0 29 -4 45 -13 45 -8
0 -11 -14 -9 -45z"/>
<path d="M1930 3620 l0 -90 113 0 114 0 18 40 c10 22 20 38 22 36 3 -2 -3 -18
-11 -35 -9 -16 -16 -32 -16 -36 0 -3 60 -5 133 -5 l132 0 -39 24 c-36 22 -70
59 -114 128 l-17 28 -167 0 -168 0 0 -90z"/>
<path d="M3776 3688 c-12 -48 -12 -48 114 -48 l119 0 -22 35 -22 34 -91 1
c-87 0 -92 -1 -98 -22z"/>
<path d="M5477 3703 c-4 -3 -7 -18 -7 -32 0 -37 -34 -88 -75 -112 -19 -12 -35
-23 -35 -25 0 -2 73 -4 163 -4 l162 1 63 35 62 35 0 54 0 55 -163 0 c-90 0
-167 -3 -170 -7z m123 -148 c0 -5 -5 -3 -10 5 -5 8 -10 20 -10 25 0 6 5 3 10
-5 5 -8 10 -19 10 -25z"/>
<path d="M3735 3593 c-52 -63 -50 -63 -517 -63 -414 0 -425 -1 -533 -25 -60
-14 -130 -32 -155 -40 -25 -8 -76 -24 -115 -36 -115 -35 -303 -132 -368 -190
-61 -55 -107 -130 -107 -177 0 -79 90 -185 215 -254 72 -40 264 -121 316 -134
l34 -8 -34 -6 -34 -5 -48 -150 c-27 -82 -49 -153 -49 -157 0 -5 100 -8 222 -8
193 0 232 3 299 21 l76 21 17 80 c8 44 13 85 9 91 -4 7 12 8 48 3 145 -20 298
-36 337 -36 55 0 414 126 797 280 183 73 379 156 560 237 160 71 715 346 715
354 0 4 -37 19 -82 33 -46 15 -103 33 -128 41 -83 27 -255 65 -292 65 l-37 0
-4 -87 -3 -88 -2 88 -2 87 -365 0 c-345 0 -368 1 -405 20 -21 11 -48 33 -60
50 l-21 30 -127 -1 -127 0 -30 -36z m145 -13 c0 -16 -2 -30 -4 -30 -2 0 -6 14
-8 30 -3 17 -1 30 4 30 4 0 8 -13 8 -30z m-1013 -112 c-2 -13 -4 -5 -4 17 -1
22 1 32 4 23 2 -10 2 -28 0 -40z m460 0 c-2 -13 -4 -5 -4 17 -1 22 1 32 4 23
2 -10 2 -28 0 -40z m-820 -90 c-2 -13 -4 -3 -4 22 0 25 2 35 4 23 2 -13 2 -33
0 -45z m147 -754 c43 -10 74 -20 68 -22 -9 -3 -47 6 -174 39 -21 5 -38 14 -38
19 0 5 15 3 33 -4 17 -8 67 -22 111 -32z m119 -31 c-7 -2 -19 -2 -25 0 -7 3
-2 5 12 5 14 0 19 -2 13 -5z m92 -13 c27 -7 27 -8 5 -8 -14 0 -38 4 -55 8 -27
7 -27 8 -5 8 14 0 39 -4 55 -8z m78 -17 c-7 -2 -21 -2 -30 0 -10 3 -4 5 12 5
17 0 24 -2 18 -5z"/>
<path d="M5770 3556 l-35 -21 33 -3 c39 -4 45 -1 40 25 -3 19 -4 19 -38 -1z"/>
<path d="M2413 3522 l-253 -2 -40 -80 -40 -80 64 0 c51 0 81 7 143 34 87 37
219 80 327 106 38 9 65 19 60 21 -5 2 -123 3 -261 1z"/>
<path d="M5067 3523 c-3 -5 20 -15 52 -21 32 -7 119 -32 194 -57 l135 -44 108
59 109 59 -282 1 c-156 0 -289 3 -297 6 -8 3 -16 1 -19 -3z"/>
<path d="M1930 3440 l0 -80 68 0 68 0 43 80 42 80 -110 0 -111 0 0 -80z"/>
<path d="M5673 3503 c-18 -9 -33 -20 -33 -24 0 -3 11 -32 25 -63 l25 -56 60 0
60 0 0 80 0 80 -52 -1 c-29 0 -68 -8 -85 -16z"/>
<path d="M5548 3433 c-38 -21 -68 -40 -68 -44 0 -15 58 -29 125 -29 l74 0 -24
52 c-14 29 -28 54 -32 55 -5 1 -38 -14 -75 -34z"/>
<path d="M5380 3344 c-409 -225 -1193 -565 -1750 -761 l-195 -68 90 -8 c50 -5
248 -6 440 -3 342 5 525 17 758 51 60 9 111 14 115 11 3 -3 -6 -6 -19 -6 -47
0 -49 -8 -28 -115 10 -55 19 -101 19 -102 0 -7 609 -2 614 5 4 6 -90 299 -100
311 -1 1 -19 3 -40 3 -25 0 -33 3 -23 9 8 5 23 9 35 9 11 0 24 4 30 9 5 5 34
18 64 29 203 75 354 180 396 276 7 17 13 24 14 16 0 -18 -34 -76 -63 -107
l-20 -23 48 0 48 0 -6 106 c-5 69 -13 120 -25 147 -23 51 -78 107 -152 155
-55 36 -164 92 -178 92 -4 0 -36 -17 -72 -36z m-161 -696 c-38 -15 -227 -58
-246 -57 -10 0 18 9 63 20 45 10 105 26 135 37 53 18 96 18 48 0z m-294 -68
c-16 -4 -41 -8 -55 -8 -22 0 -22 1 5 8 17 4 41 8 55 8 22 0 22 -1 -5 -8z"/>
<path d="M1930 3244 c0 -75 3 -105 11 -102 15 5 119 195 111 202 -3 3 -32 6
-64 6 l-58 0 0 -106z"/>
<path d="M2047 3294 l-28 -56 38 29 c21 16 55 40 76 52 20 12 37 25 37 27 0 2
-22 4 -48 4 l-48 0 -27 -56z"/>
<path d="M5570 3346 c0 -2 20 -16 45 -31 25 -14 61 -40 80 -57 19 -16 35 -27
35 -24 0 3 -11 30 -24 61 l-25 55 -55 0 c-31 0 -56 -2 -56 -4z"/>
<path d="M5700 3340 c0 -19 91 -200 100 -200 6 0 10 44 10 105 l0 105 -55 0
c-30 0 -55 -5 -55 -10z"/>
<path d="M1930 2953 l0 -73 46 0 46 0 -31 39 c-17 22 -38 54 -46 73 -14 33
-14 33 -15 -39z"/>
<path d="M1414 2896 c-23 -23 -34 -43 -34 -62 1 -27 2 -26 15 11 8 22 15 41
15 42 0 9 64 33 85 33 39 0 85 -50 85 -93 0 -95 -130 -131 -175 -48 -10 18
-14 21 -15 9 0 -25 57 -68 91 -68 37 0 85 24 99 49 5 11 10 38 10 61 0 59 -42
100 -100 100 -34 0 -48 -6 -76 -34z"/>
<path d="M1930 2770 l0 -100 245 0 c135 0 245 2 245 4 0 2 -28 13 -62 26 -85
30 -213 95 -271 136 -40 29 -55 34 -102 34 l-55 0 0 -100z"/>
<path d="M5664 2842 c-60 -43 -161 -95 -244 -127 -41 -16 -79 -32 -84 -37 -6
-4 99 -8 232 -8 l242 0 0 100 0 100 -53 0 c-43 0 -62 -6 -93 -28z"/>
<path d="M1930 2535 l0 -125 150 0 c161 0 193 -7 224 -52 12 -16 16 -18 20 -7
3 8 27 80 55 162 l49 147 -249 0 -249 0 0 -125z"/>
<path d="M5342 2648 c3 -7 24 -71 48 -143 23 -71 44 -131 45 -133 2 -2 18 6
36 17 30 19 50 21 187 21 l152 0 0 125 0 125 -236 0 c-185 0 -235 -3 -232 -12z"/>
<path d="M2985 2538 c-3 -7 -11 -44 -19 -81 l-14 -69 27 7 c50 12 326 98 341
106 13 7 13 8 0 9 -27 0 -274 30 -303 36 -18 4 -29 1 -32 -8z"/>
<path d="M4675 2539 c-75 -13 -361 -39 -426 -39 -32 0 -60 -4 -63 -8 -3 -5 -2
-41 1 -80 l6 -72 304 0 304 0 -7 35 c-18 97 -41 170 -55 171 -8 1 -36 -2 -64
-7z"/>
<path d="M3280 2466 c-52 -18 -148 -48 -212 -67 -185 -53 -167 -59 186 -59
l304 0 7 69 c4 39 4 75 0 80 -4 7 -43 11 -98 10 -76 0 -108 -6 -187 -33z"/>
<path d="M3580 2415 l0 -75 301 0 302 0 -7 46 c-3 26 -6 60 -6 75 l0 29 -295
0 -295 0 0 -75z"/>
<path d="M2900 2350 l-25 -8 28 -1 c15 -1 27 4 27 9 0 6 -1 10 -2 9 -2 -1 -14
-5 -28 -9z"/>
<path d="M2337 2283 c3 -27 7 -49 7 -50 2 -3 320 73 361 86 21 6 -30 10 -172
10 l-203 1 7 -47z"/>
<path d="M2600 2274 c-118 -30 -225 -57 -237 -59 -22 -5 -23 -10 -23 -105 l0
-100 264 0 265 0 4 23 4 22 2 -22 1 -23 329 0 329 0 6 63 c3 34 8 106 12 160
l6 97 -309 0 -310 0 -23 -112 c-13 -62 -25 -107 -27 -101 -4 11 20 148 33 196
9 31 -95 19 -326 -39z m287 -206 c-3 -7 -5 -2 -5 12 0 14 2 19 5 13 2 -7 2
-19 0 -25z"/>
<path d="M3566 2193 c-4 -76 -9 -148 -12 -160 l-4 -23 324 0 325 0 4 48 3 47
2 -47 2 -48 324 0 325 0 4 23 4 22 2 -22 1 -23 265 0 265 0 0 129 c0 71 3 143
6 160 l6 31 -610 0 -611 0 3 -103 c2 -56 2 -84 0 -62 -2 22 -6 68 -10 103 l-6
62 -303 0 -303 0 -6 -137z m1293 -118 c-1 -11 -12 30 -25 90 -12 61 -23 119
-23 130 1 11 12 -29 25 -90 12 -60 23 -119 23 -130z"/>
<path d="M5548 2265 c-7 -33 -3 -35 54 -35 36 0 48 4 48 15 0 10 -11 15 -35
15 -24 0 -35 5 -35 15 0 25 -27 17 -32 -10z"/>
<path d="M2116 2264 c-19 -18 -21 -45 -4 -62 21 -21 30 -13 23 19 -6 28 -5 30
17 27 17 -2 22 -9 20 -26 -1 -18 2 -23 15 -20 43 8 13 78 -33 78 -12 0 -30 -7
-38 -16z"/>
<path d="M5598 2213 c-46 -5 -63 -29 -48 -68 11 -29 34 -24 25 6 -4 10 -2 19
4 19 5 0 11 -10 13 -22 4 -30 43 -37 57 -11 5 11 6 25 2 32 -5 7 -6 22 -4 32
3 10 1 18 -3 17 -5 -1 -26 -3 -46 -5z m32 -54 c0 -5 -4 -9 -10 -9 -5 0 -10 7
-10 16 0 8 5 12 10 9 6 -3 10 -10 10 -16z"/>
<path d="M2179 2173 c-1 -5 -1 -17 0 -28 1 -17 0 -17 -9 3 -8 18 -16 23 -37
20 -25 -3 -28 -7 -29 -39 -1 -36 0 -37 37 -37 55 -1 80 28 63 72 -6 16 -23 22
-25 9z m-39 -33 c0 -5 -2 -10 -4 -10 -3 0 -8 5 -11 10 -3 6 -1 10 4 10 6 0 11
-4 11 -10z"/>
<path d="M5530 2107 c0 -8 3 -17 7 -21 4 -3 8 -16 10 -28 5 -30 13 -33 80 -33
53 0 58 2 61 24 7 43 -7 73 -31 69 -16 -2 -24 -12 -28 -38 -4 -19 -7 -25 -8
-14 -1 27 -26 48 -46 41 -8 -4 -17 -2 -20 3 -9 15 -25 12 -25 -3z m140 -36 c0
-11 -4 -23 -10 -26 -6 -4 -10 5 -10 19 0 14 5 26 10 26 6 0 10 -9 10 -19z
m-80 -6 c0 -8 -4 -15 -10 -15 -5 0 -10 7 -10 15 0 8 5 15 10 15 6 0 10 -7 10
-15z"/>
<path d="M2105 2071 c-11 -19 5 -31 41 -31 27 0 34 -4 34 -20 0 -14 -7 -20
-24 -20 -13 0 -31 -3 -40 -6 -20 -8 -21 -44 -1 -44 8 0 15 4 15 8 0 10 30 9
48 -2 7 -4 19 -2 27 4 8 7 15 9 15 4 0 -5 5 -2 10 6 7 11 5 17 -8 21 -12 4
-17 17 -17 45 l0 39 -47 3 c-25 2 -49 -2 -53 -7z"/>
<path d="M5564 1996 c-27 -23 -28 -24 -11 -50 20 -29 66 -36 86 -12 16 19 10
68 -8 74 -10 3 -12 -2 -7 -21 3 -14 2 -29 -4 -32 -6 -4 -10 6 -10 24 0 41 -13
46 -46 17z m20 -31 c3 -8 1 -15 -4 -15 -6 0 -10 7 -10 15 0 8 2 15 4 15 2 0 6
-7 10 -15z"/>
<path d="M2338 1800 l-3 -200 227 0 c207 0 227 1 231 18 4 16 5 16 6 0 1 -17
60 -18 1084 -18 595 -1 1178 0 1295 0 140 0 212 -3 212 -10 0 -6 -73 -10 -214
-10 -196 0 -215 -2 -219 -17 -4 -17 -5 -17 -6 0 -1 16 -25 17 -355 17 l-355 0
-4 -37 -4 -38 -1 38 -2 37 -345 0 c-190 0 -615 0 -945 0 -330 0 -604 0 -608 0
-5 0 -14 -11 -20 -25 -21 -46 -68 -65 -162 -65 -54 0 -91 -5 -98 -12 -9 -9
-12 -9 -12 0 0 8 -19 12 -55 12 l-56 0 2 -185 1 -185 1938 0 1938 0 1 185 1
185 -40 0 c-31 0 -40 -4 -40 -17 -1 -17 -1 -17 -11 0 -8 14 -25 17 -111 17
-94 0 -105 2 -140 26 -20 15 -40 35 -43 45 -4 11 -11 19 -16 19 -5 0 -9 6 -8
13 1 6 1 101 0 210 l-1 197 -259 0 -260 0 -4 -22 -4 -23 -2 23 -1 22 -329 0
c-305 0 -330 -1 -334 -17 -4 -17 -5 -17 -6 0 -1 16 -24 17 -325 17 l-324 0 -7
-137 c-4 -76 -11 -165 -16 -198 -8 -64 -5 48 8 243 l6 92 -334 -2 -333 -3 -7
-25 -7 -25 -1 28 -1 27 -260 0 -259 0 -3 -200z m2549 118 c-3 -7 -5 -2 -5 12
0 14 2 19 5 13 2 -7 2 -19 0 -25z m-2030 -10 c-3 -7 -5 -2 -5 12 0 14 2 19 5
13 2 -7 2 -19 0 -25z m1360 -70 c-2 -18 -4 -4 -4 32 0 36 2 50 4 33 2 -18 2
-48 0 -65z m680 30 c-3 -7 -5 -2 -5 12 0 14 2 19 5 13 2 -7 2 -19 0 -25z
m-2050 -10 c-3 -7 -5 -2 -5 12 0 14 2 19 5 13 2 -7 2 -19 0 -25z m-10 -50 c-3
-7 -5 -2 -5 12 0 14 2 19 5 13 2 -7 2 -19 0 -25z m2070 10 c-3 -8 -6 -5 -6 6
-1 11 2 17 5 13 3 -3 4 -12 1 -19z m-2080 -60 c-3 -7 -5 -2 -5 12 0 14 2 19 5
13 2 -7 2 -19 0 -25z m2090 0 c-3 -7 -5 -2 -5 12 0 14 2 19 5 13 2 -7 2 -19 0
-25z m-690 -75 c-2 -16 -4 -3 -4 27 0 30 2 43 4 28 2 -16 2 -40 0 -55z m700
25 c-3 -7 -5 -2 -5 12 0 14 2 19 5 13 2 -7 2 -19 0 -25z m-2110 0 c-3 -8 -6
-5 -6 6 -1 11 2 17 5 13 3 -3 4 -12 1 -19z m2120 -50 c-3 -7 -5 -2 -5 12 0 14
2 19 5 13 2 -7 2 -19 0 -25z m-2130 0 c-3 -8 -6 -5 -6 6 -1 11 2 17 5 13 3 -3
4 -12 1 -19z m2140 -40 c-3 -8 -6 -5 -6 6 -1 11 2 17 5 13 3 -3 4 -12 1 -19z
m-2160 -70 c-3 -8 -6 -5 -6 6 -1 11 2 17 5 13 3 -3 4 -12 1 -19z m735 -10 c-8
-8 -9 -4 -5 13 4 13 8 18 11 10 2 -7 -1 -18 -6 -23z m1445 -30 c-3 -8 -6 -5
-6 6 -1 11 2 17 5 13 3 -3 4 -12 1 -19z m-2190 -10 c-3 -8 -6 -5 -6 6 -1 11 2
17 5 13 3 -3 4 -12 1 -19z m-10 -60 c-3 -7 -5 -2 -5 12 0 14 2 19 5 13 2 -7 2
-19 0 -25z m2982 -33 c0 -5 -4 -3 -9 5 -5 8 -9 22 -9 30 0 16 17 -16 18 -35z
m-1502 -42 c-2 -16 -4 -3 -4 27 0 30 2 43 4 28 2 -16 2 -40 0 -55z m-2226 40
c-12 -20 -14 -14 -5 12 4 9 9 14 11 11 3 -2 0 -13 -6 -23z m2966 -5 c-3 -8 -6
-5 -6 6 -1 11 2 17 5 13 3 -3 4 -12 1 -19z m-2230 -10 c-3 -8 -6 -5 -6 6 -1
11 2 17 5 13 3 -3 4 -12 1 -19z m750 -45 c-3 -10 -5 -2 -5 17 0 19 2 27 5 18
2 -10 2 -26 0 -35z m2250 25 c-3 -8 -6 -5 -6 6 -1 11 2 17 5 13 3 -3 4 -12 1
-19z m-760 -20 c-3 -8 -6 -5 -6 6 -1 11 2 17 5 13 3 -3 4 -12 1 -19z m-2250
-10 c-3 -8 -6 -5 -6 6 -1 11 2 17 5 13 3 -3 4 -12 1 -19z m-10 -50 c-3 -8 -6
-5 -6 6 -1 11 2 17 5 13 3 -3 4 -12 1 -19z m1520 -80 c-2 -13 -4 -3 -4 22 0
25 2 35 4 23 2 -13 2 -33 0 -45z m-760 -35 c-3 -10 -5 -2 -5 17 0 19 2 27 5
18 2 -10 2 -26 0 -35z"/>
<path d="M2132 1939 c-27 -10 -36 -31 -28 -64 9 -35 24 -31 29 8 l4 32 1 -32
c2 -28 6 -33 27 -33 33 0 52 34 35 65 -15 27 -37 35 -68 24z m53 -38 c3 -5 1
-12 -5 -16 -5 -3 -10 1 -10 9 0 18 6 21 15 7z"/>
<path d="M5545 1912 c-9 -9 17 -32 36 -32 10 0 21 -4 24 -10 3 -6 -4 -10 -18
-10 -26 0 -54 -24 -39 -34 4 -3 28 1 53 8 65 19 65 47 -1 67 -27 9 -52 13 -55
11z"/>
<path d="M2104 1831 c-2 -2 -4 -11 -4 -18 0 -11 16 -14 73 -11 54 2 72 7 72
18 0 11 -16 14 -68 15 -38 0 -71 -2 -73 -4z"/>
<path d="M5571 1808 c-24 -9 -33 -35 -21 -59 15 -27 32 -24 24 6 -4 15 -2 25
5 25 6 0 11 -11 11 -24 0 -25 20 -39 45 -30 10 4 14 20 13 49 0 42 -2 44 -30
42 -16 -1 -37 -5 -47 -9z m59 -43 c0 -8 -4 -15 -10 -15 -5 0 -10 7 -10 15 0 8
5 15 10 15 6 0 10 -7 10 -15z"/>
<path d="M2100 1766 c0 -10 13 -16 38 -18 36 -3 37 -4 38 -42 l1 -39 -14 26
c-25 49 -58 30 -59 -35 l0 -38 40 7 c23 3 47 10 54 16 15 12 16 49 0 65 -7 7
-8 12 -2 12 6 0 11 14 11 30 0 30 -1 30 -54 30 -39 0 -53 -4 -53 -14z m40 -92
c0 -8 -5 -12 -10 -9 -6 4 -8 11 -5 16 9 14 15 11 15 -7z"/>
<path d="M1024 1696 c-8 -21 3 -36 27 -36 15 0 20 6 17 22 -4 27 -35 37 -44
14z"/>
<path d="M5553 1698 c-5 -7 -9 -26 -8 -43 2 -29 4 -30 53 -33 41 -2 52 0 52
12 0 10 -12 16 -35 18 -44 4 -46 21 -4 28 52 8 49 30 -4 30 -24 0 -49 -6 -54
-12z"/>
<path d="M1932 722 l3 -387 33 -67 c43 -88 106 -152 190 -191 l67 -32 578 -3
577 -3 0 138 c0 149 12 196 60 238 21 19 38 20 424 23 l402 3 35 -23 c59 -40
69 -74 69 -236 l0 -143 578 3 577 3 59 30 c83 42 150 110 189 192 l32 68 3
387 3 388 -1941 0 -1941 0 3 -388z m2335 336 c-3 -7 -5 -2 -5 12 0 14 2 19 5
13 2 -7 2 -19 0 -25z m10 -160 c-3 -8 -6 -5 -6 6 -1 11 2 17 5 13 3 -3 4 -12
1 -19z"/>
<path d="M3990 320 c-8 -16 -8 -20 3 -20 18 0 39 24 30 33 -11 12 -22 8 -33
-13z"/>
<path d="M4130 315 c0 -8 7 -15 15 -15 8 0 15 7 15 15 0 8 -7 15 -15 15 -8 0
-15 -7 -15 -15z"/>
<path d="M3500 293 c-45 -58 -3 -132 73 -133 49 0 46 24 -4 28 -45 5 -59 18
-59 56 0 39 15 56 51 56 33 0 52 -21 46 -52 -4 -21 -4 -21 -6 3 -1 21 -7 28
-28 32 -34 6 -53 -8 -53 -38 0 -32 19 -43 65 -42 39 2 40 3 43 40 4 52 -19 77
-69 77 -29 0 -42 -6 -59 -27z m70 -47 c0 -8 -4 -18 -10 -21 -5 -3 -10 3 -10
14 0 12 5 21 10 21 6 0 10 -6 10 -14z"/>
<path d="M3650 246 c0 -50 12 -63 57 -63 35 0 41 14 34 75 -5 49 -31 42 -31
-9 0 -52 -24 -48 -28 4 -5 56 -32 50 -32 -7z"/>
<path d="M3761 273 c-12 -23 -3 -39 29 -53 l25 -10 -27 5 c-32 6 -44 -8 -22
-26 11 -9 23 -10 42 -3 33 12 36 45 5 59 -29 12 -30 25 -2 18 16 -4 20 -2 17
8 -7 22 -55 23 -67 2z"/>
<path d="M3850 246 c0 -50 14 -66 55 -62 28 3 30 6 33 55 2 40 0 51 -12 51
-10 0 -16 -12 -18 -37 -2 -21 -7 -38 -13 -38 -5 0 -11 17 -13 38 -5 56 -32 50
-32 -7z"/>
<path d="M3967 283 c-14 -14 -6 -23 21 -23 l27 -1 -32 -14 c-56 -24 -39 -59
29 -61 l38 0 -7 40 c-3 23 -10 47 -16 54 -10 13 -49 17 -60 5z m40 -69 c-3 -3
-12 -4 -19 -1 -8 3 -5 6 6 6 11 1 17 -2 13 -5z"/>
<path d="M4062 238 c4 -61 28 -81 28 -24 0 23 5 39 15 42 26 10 16 31 -15 32
l-31 1 3 -51z"/>
<path d="M4134 276 c-9 -24 0 -89 14 -94 8 -3 12 12 12 52 0 53 -14 74 -26 42z"/>
<path d="M4184 265 c-30 -46 13 -99 62 -76 18 8 24 19 24 44 0 18 -5 38 -12
45 -20 20 -56 14 -74 -13z m54 -27 c-5 -32 -28 -35 -28 -4 0 17 5 26 16 26 10
0 14 -7 12 -22z"/>
</g>
</svg>
